<?xml version="1.0" standalone="no"?><!DOCTYPE svg PUBLIC "-//W3C//DTD SVG 1.1//EN" "http://www.w3.org/Graphics/SVG/1.1/DTD/svg11.dtd"><svg t="1729761904269" class="icon" viewBox="0 0 1024 1024" version="1.1" xmlns="http://www.w3.org/2000/svg" p-id="1754" id="mx_n_1729761904269" data-spm-anchor-id="a313x.search_index.0.i5.5f903a81IZmj6s" width="64" height="64" xmlns:xlink="http://www.w3.org/1999/xlink"><path d="M448 678.4a25.6 25.6 0 0 0 25.536-23.68L473.6 652.8V371.2c0-23.7184-29.2096-34.3808-44.5696-17.2032l-1.2416 1.4976-76.8 98.7904a25.6 25.6 0 0 0 39.0656 33.024l1.3568-1.6L422.4 445.8496V652.8a25.6 25.6 0 0 0 23.68 25.536L448 678.4zM576 345.5488a25.6 25.6 0 0 0-25.536 23.68l-0.064 1.92v281.6c0 23.7184 29.2096 34.3808 44.5696 17.2032l1.2416-1.4848 76.8-98.816a25.6 25.6 0 0 0-39.0656-33.024l-1.3568 1.6128L601.6 578.0992V371.1488a25.6 25.6 0 0 0-23.68-25.5232l-1.92-0.0768z" fill="#3491FA" p-id="1755" data-spm-anchor-id="a313x.search_index.0.i6.5f903a81IZmj6s" class="selected"></path></svg>